<svg width="36" height="36" viewBox="0 0 36 36" fill="none" xmlns="http://www.w3.org/2000/svg">
<g clip-path="url(#clip0_173_550)">
<path d="M18 36C27.9411 36 36 27.9411 36 18C36 8.05887 27.9411 0 18 0C8.05887 0 0 8.05887 0 18C0 27.9411 8.05887 36 18 36Z" fill="#FEFEFE"/>
<path d="M25.3371 26.4623C25.1121 26.4623 24.8871 26.3971 24.6914 26.2576C20.4726 23.2921 13.4549 23.1278 8.71638 24.2326C8.57234 24.266 8.42313 24.2707 8.27727 24.2464C8.13141 24.2221 7.99177 24.1693 7.8663 24.0911C7.74084 24.0129 7.63202 23.9107 7.54605 23.7904C7.46008 23.6701 7.39864 23.534 7.36526 23.39C7.33187 23.2459 7.32718 23.0967 7.35145 22.9508C7.37573 22.805 7.4285 22.6653 7.50674 22.5399C7.58499 22.4144 7.68718 22.3056 7.80748 22.2196C7.92778 22.1337 8.06384 22.0722 8.20788 22.0388C13.4166 20.8328 21.2016 21.0533 25.9829 24.4171C26.1783 24.5545 26.325 24.7506 26.4015 24.977C26.478 25.2033 26.4805 25.4482 26.4086 25.6761C26.3366 25.9039 26.194 26.1029 26.0014 26.2443C25.8087 26.3857 25.5761 26.462 25.3371 26.4623ZM27.5376 22.0613C27.3018 22.0622 27.0717 21.9881 26.8806 21.8498C21.9891 18.3376 15.9771 17.4646 7.95363 19.1026C7.80885 19.1323 7.65963 19.1332 7.51451 19.1052C7.36938 19.0772 7.23119 19.0209 7.10782 18.9396C6.98444 18.8582 6.8783 18.7533 6.79546 18.6309C6.71262 18.5085 6.6547 18.371 6.62501 18.2262C6.59531 18.0814 6.59442 17.9322 6.62239 17.7871C6.65037 17.642 6.70665 17.5038 6.78803 17.3804C6.8694 17.257 6.97429 17.1509 7.09668 17.068C7.21908 16.9852 7.3566 16.9273 7.50138 16.8976C16.1796 15.1268 22.7541 16.1168 28.1946 20.0206C28.3889 20.1592 28.5341 20.3561 28.6091 20.5827C28.6842 20.8093 28.6852 21.0539 28.612 21.2811C28.5389 21.5083 28.3954 21.7064 28.2022 21.8466C28.0091 21.9869 27.7763 22.0621 27.5376 22.0613ZM29.7404 16.1911C29.515 16.1912 29.2948 16.1238 29.1081 15.9976C22.9049 11.7878 13.4751 11.7676 7.37088 13.9276C7.23142 13.9768 7.08363 13.998 6.93595 13.9901C6.78828 13.9822 6.64361 13.9453 6.51021 13.8814C6.37681 13.8176 6.25728 13.7281 6.15846 13.6181C6.05964 13.5081 5.98345 13.3797 5.93426 13.2402C5.88506 13.1007 5.86381 12.953 5.87173 12.8053C5.87965 12.6576 5.91658 12.5129 5.98041 12.3795C6.04424 12.2461 6.13372 12.1266 6.24374 12.0278C6.35376 11.929 6.48217 11.8528 6.62163 11.8036C13.2614 9.45683 23.5506 9.50633 30.3749 14.1346C30.5745 14.2698 30.7254 14.4655 30.8054 14.6929C30.8853 14.9203 30.8901 15.1674 30.8191 15.3978C30.748 15.6281 30.6048 15.8296 30.4106 15.9724C30.2164 16.1152 29.9814 16.1919 29.7404 16.1911Z" fill="#37474F"/>
</g>
<defs>
<clipPath id="clip0_173_550">
<rect width="36" height="36" fill="white"/>
</clipPath>
</defs>
</svg>
