<svg width="176" height="80" viewBox="0 0 176 80" fill="none" xmlns="http://www.w3.org/2000/svg">
<path d="M51.865 39.3201C51.8521 38.9112 51.8263 38.5023 51.7876 38.1021C51.2108 32.0463 47.9011 26.774 43.1065 23.5373C43.1151 23.5072 43.1108 23.4685 43.0763 23.4426C39.5686 20.7612 35.1915 19.1602 30.4399 19.1602C19.5896 19.1602 10.6503 27.497 9.68621 38.0978C9.65178 38.498 9.62593 38.8983 9.61302 39.3029C9.60441 39.5353 9.6001 39.7677 9.6001 40.0001C9.6001 40.2283 9.60441 40.452 9.61302 40.6802C9.62593 41.089 9.65178 41.4979 9.69052 41.8982C10.2672 47.9539 13.577 53.2263 18.3716 56.4629C18.363 56.4931 18.3673 56.5318 18.4017 56.5576C21.9095 59.239 26.2866 60.8401 31.0382 60.8401C41.8885 60.8401 50.8278 52.5033 51.7919 41.9025C51.8263 41.5022 51.8521 41.102 51.865 40.6974C51.8737 40.465 51.878 40.2326 51.878 40.0001C51.8737 39.772 51.8737 39.5482 51.865 39.3201ZM32.7554 20.6622C35.9619 20.6622 38.9833 21.4499 41.6431 22.8358C46.6831 25.6721 50.3586 30.6605 51.4045 36.5483C50.5265 33.3763 48.4692 30.6906 45.7362 28.9948C45.7448 28.9561 45.7319 28.9087 45.6889 28.8786C43.1667 26.9891 39.9818 25.939 36.5515 26.1413C31.0209 26.4727 26.364 30.0923 24.4445 35.0118C23.7257 36.8625 21.974 38.1021 19.9899 38.1021H19.7833C16.211 38.1021 13.9256 34.3145 15.5697 31.1382C18.7891 24.9189 25.2838 20.6622 32.7554 20.6622ZM34.0036 41.9025C33.1514 47.4245 28.5935 51.7974 22.9596 52.3311C20.4031 52.5721 17.9885 52.0298 15.9183 50.9194C15.9054 50.9108 15.8968 50.9108 15.8839 50.9108C12.7291 48.9783 10.4738 45.7115 9.90571 41.9068H34.0036V41.9025ZM28.7183 59.3423C25.5119 59.3423 22.4905 58.5547 19.8306 57.1688C14.7907 54.3324 11.1151 49.3441 10.0693 43.4562C10.9473 46.6283 13.0045 49.314 15.7376 51.0098C15.7289 51.0485 15.7419 51.0958 15.7849 51.126C18.307 53.0154 21.492 54.0656 24.9222 53.8633C30.4528 53.5319 35.1097 49.9122 37.0293 44.9928C37.7481 43.1421 39.4998 41.9025 41.4839 41.9025H41.6905C45.2628 41.9025 47.5482 45.69 45.9041 48.8664C42.6804 55.0813 36.1857 59.3423 28.7183 59.3423ZM27.4702 38.1021C28.318 32.58 32.8803 28.2072 38.5141 27.6735C41.0707 27.4325 43.4852 27.9747 45.5554 29.0852C45.5683 29.0938 45.5769 29.0938 45.5898 29.0938C48.7446 31.0263 50.9999 34.293 51.568 38.0978H27.4702V38.1021Z" fill="#F5F5F5"/>
<path d="M103.687 45.8081C102.886 46.0276 102.163 46.4322 101.565 46.9745C100.511 47.93 99.8477 49.303 99.8477 50.8352V55.8794H101.565V50.8352C101.565 49.2212 102.658 47.8697 104.139 47.4651L103.687 45.8081Z" fill="#F5F5F5"/>
<path d="M119.164 54.5194C117.231 54.5194 115.669 52.9527 115.669 51.0202C115.669 49.0921 117.231 47.5254 119.164 47.5254C120.128 47.5254 121.002 47.9171 121.634 48.5498L122.848 47.336C121.905 46.3934 120.601 45.8081 119.164 45.8081C116.413 45.8081 114.167 47.9386 113.973 50.6372C113.956 50.4177 113.934 50.1982 113.887 49.9873C113.409 47.6029 111.305 45.8081 108.778 45.8081C105.899 45.8081 103.566 48.1409 103.566 51.0202C103.566 53.8996 105.899 56.2324 108.778 56.2324C111.236 56.2324 113.297 54.5323 113.844 52.2426H112.049C111.554 53.5682 110.276 54.5151 108.778 54.5151C107.082 54.5151 105.667 53.3057 105.348 51.7003H113.943C113.956 51.6099 113.965 51.5152 113.969 51.4248C114.175 54.1148 116.418 56.2324 119.159 56.2324C120.597 56.2324 121.901 55.6513 122.844 54.7045L121.63 53.4907C121.002 54.1277 120.128 54.5194 119.164 54.5194ZM105.438 49.9873C105.882 48.5626 107.212 47.5254 108.778 47.5254C110.349 47.5254 111.679 48.5626 112.118 49.9873H105.438Z" fill="#F5F5F5"/>
<path d="M127.875 45.8081C124.996 45.8081 122.663 48.1409 122.663 51.0202C122.663 53.8996 124.996 56.2324 127.875 56.2324C130.75 56.2324 133.087 53.8996 133.087 51.0202C133.087 48.1452 130.75 45.8081 127.875 45.8081ZM127.875 54.5194C125.943 54.5194 124.376 52.9527 124.376 51.0202C124.376 49.0921 125.943 47.5254 127.875 47.5254C129.803 47.5254 131.37 49.0921 131.37 51.0202C131.37 52.9527 129.803 54.5194 127.875 54.5194Z" fill="#F5F5F5"/>
<path d="M137.116 45.8081C136.315 46.0276 135.592 46.4322 134.994 46.9745C133.939 47.93 133.276 49.303 133.276 50.8352V55.8794H134.994V50.8352C134.994 49.2212 136.087 47.8697 137.567 47.4651L137.116 45.8081Z" fill="#F5F5F5"/>
<path d="M145.702 43.7206V47.1552C144.781 46.3159 143.55 45.808 142.207 45.808C139.328 45.808 136.995 48.1408 136.995 51.0202C136.995 53.8996 139.328 56.2323 142.207 56.2323C143.554 56.2323 144.781 55.7244 145.702 54.8852V55.8794H147.419V43.7163H145.702V43.7206ZM142.207 54.5193C140.279 54.5193 138.712 52.9527 138.712 51.0202C138.712 49.092 140.279 47.5253 142.207 47.5253C144.14 47.5253 145.702 49.092 145.702 51.0202C145.702 52.9527 144.14 54.5193 142.207 54.5193Z" fill="#F5F5F5"/>
<path d="M154.332 49.9742H150.944C150.264 49.9742 149.713 49.4233 149.713 48.7433C149.713 48.0632 150.264 47.5123 150.944 47.5123H156.32V45.7993H150.944C149.317 45.7993 147.996 47.1206 147.996 48.7475C147.996 50.3745 149.317 51.6958 150.944 51.6958H154.332C155.012 51.6958 155.567 52.251 155.567 52.9354C155.567 53.6197 155.012 54.1706 154.332 54.1706H149.132V55.8879H154.332C155.963 55.8879 157.284 54.5666 157.284 52.9354C157.284 51.2955 155.963 49.9742 154.332 49.9742Z" fill="#F5F5F5"/>
<path d="M162.819 28.6822C162.823 28.6822 162.823 28.6822 162.828 28.6822V28.678C162.849 28.6737 162.866 28.665 162.888 28.6564C162.892 28.6521 162.896 28.6521 162.901 28.6478C162.987 28.6091 163.056 28.5574 163.107 28.4929C163.112 28.4886 163.116 28.4843 163.116 28.48C163.129 28.4671 163.137 28.4499 163.146 28.4326C163.146 28.4326 163.15 28.4283 163.15 28.424C163.18 28.3724 163.202 28.3121 163.215 28.2433C163.215 28.239 163.215 28.2346 163.215 28.2303C163.219 28.2131 163.223 28.1916 163.228 28.1658V28.1486C163.232 28.127 163.232 28.1055 163.232 28.0797V27.6278V27.6235C163.228 27.5977 163.228 27.5718 163.223 27.546C163.223 27.5417 163.224 27.5417 163.219 27.5374C163.215 27.5159 163.211 27.4901 163.206 27.4685C163.206 27.4642 163.202 27.4599 163.202 27.4599C163.193 27.4384 163.189 27.4212 163.18 27.3997C163.18 27.3954 163.176 27.3911 163.172 27.3868C163.163 27.3695 163.155 27.3523 163.146 27.3394C163.142 27.3351 163.137 27.3265 163.133 27.3222C163.124 27.3093 163.116 27.2964 163.103 27.2834C163.099 27.2748 163.09 27.2662 163.081 27.2576C163.073 27.249 163.064 27.2404 163.056 27.2275C163.047 27.2146 163.034 27.2103 163.021 27.1974C163.013 27.1931 163.008 27.1845 163 27.1802C162.849 27.0683 162.625 27.0166 162.333 27.0209V27.0166H160.155V29.4828H160.908V28.7597H162.061L162.548 29.4828H163.344L162.819 28.6822ZM162.586 27.9592C162.586 27.9678 162.586 27.9764 162.586 27.985V27.9936C162.582 28.0022 162.582 28.0108 162.582 28.0194V28.0237C162.574 28.0496 162.565 28.0754 162.552 28.0969C162.552 28.1012 162.552 28.1012 162.552 28.1012C162.548 28.1055 162.543 28.1141 162.539 28.1184C162.539 28.1227 162.539 28.1227 162.535 28.1227C162.513 28.1486 162.488 28.1701 162.449 28.1873C162.449 28.1916 162.449 28.1916 162.444 28.1916C162.436 28.1959 162.427 28.2002 162.419 28.2045H162.41C162.384 28.2131 162.35 28.2217 162.311 28.226C162.311 28.226 162.311 28.226 162.307 28.226C162.298 28.226 162.285 28.2303 162.272 28.2303H162.259C162.251 28.2346 162.238 28.2346 162.225 28.2346H160.917V27.5116H162.225C162.341 27.5116 162.427 27.5331 162.487 27.5761C162.492 27.5804 162.496 27.5804 162.496 27.5847C162.5 27.589 162.505 27.589 162.509 27.5977C162.513 27.602 162.518 27.6019 162.522 27.6062C162.526 27.6106 162.531 27.6106 162.531 27.6149C162.535 27.6192 162.539 27.6235 162.543 27.6321C162.548 27.6364 162.548 27.6364 162.548 27.6407C162.552 27.645 162.556 27.6536 162.556 27.6622C162.561 27.6622 162.561 27.6665 162.561 27.6665C162.565 27.6708 162.569 27.6794 162.569 27.688V27.6923C162.574 27.7009 162.578 27.7095 162.578 27.7182C162.578 27.7225 162.578 27.7225 162.578 27.7225C162.582 27.7311 162.582 27.744 162.582 27.7526V27.9592H162.586Z" fill="#F5F5F5"/>
<path d="M161.756 23.7676C159.285 23.7676 157.284 25.7689 157.284 28.2394C157.284 30.7099 159.285 32.7113 161.756 32.7113C164.226 32.7113 166.228 30.7099 166.228 28.2394C166.228 25.7689 164.226 23.7676 161.756 23.7676ZM161.756 31.2178C160.116 31.2178 158.777 29.8836 158.777 28.2394C158.777 26.5996 160.116 25.2611 161.756 25.2611C163.4 25.2611 164.734 26.5996 164.734 28.2394C164.734 29.8836 163.4 31.2178 161.756 31.2178Z" fill="#F5F5F5"/>
<path d="M79.3392 32.1301C79.3349 32.0397 79.3263 31.9536 79.3177 31.8632C79.3177 31.846 79.3177 31.8288 79.3091 31.8159C79.3005 31.7126 79.2833 31.6093 79.2704 31.5017C79.2617 31.4199 79.2488 31.3425 79.2359 31.2607H64.6153C64.6282 31.2176 64.6369 31.1746 64.6498 31.1358C64.6627 31.0928 64.6713 31.0498 64.6885 31.011C64.7273 30.8819 64.7703 30.7485 64.8177 30.6237C64.8177 30.6194 64.8177 30.6151 64.822 30.6108C64.8564 30.5075 64.8994 30.4128 64.9424 30.3138C64.9683 30.2449 64.9984 30.1804 65.0372 30.1158C65.0845 30.0211 65.1318 29.9307 65.1792 29.8361C65.2782 29.6553 65.3815 29.4831 65.5063 29.311C65.5665 29.2249 65.6268 29.1431 65.6913 29.057C65.7731 28.9451 65.8592 28.8418 65.9539 28.7385C65.9539 28.7342 65.9582 28.7342 65.9582 28.7342C66.0486 28.6309 66.1389 28.5319 66.2379 28.4415C66.3369 28.3382 66.436 28.2522 66.5436 28.1618C66.7501 27.9896 66.9696 27.8261 67.1977 27.6754C67.3053 27.6066 67.4086 27.5463 67.5205 27.4861C67.5851 27.4516 67.6454 27.4172 67.7142 27.3828C67.7745 27.3483 67.8304 27.3182 67.895 27.2881C67.9079 27.2795 67.9251 27.2752 67.938 27.2709C68.0629 27.2106 68.1919 27.159 68.321 27.1116C68.4416 27.0643 68.5664 27.0212 68.6869 26.9911C68.8333 26.9438 68.9839 26.9007 69.1302 26.8749C69.2679 26.8448 69.41 26.8189 69.5477 26.7974C69.552 26.7931 69.5606 26.7931 69.5649 26.7974C69.6983 26.7759 69.8404 26.7587 69.9781 26.7501C69.9824 26.7458 69.9867 26.7458 69.991 26.7501C70.1287 26.7372 70.2751 26.7329 70.4128 26.7329H70.4343C70.5763 26.7329 70.7184 26.7372 70.8604 26.7501H70.8647C70.9723 26.7587 71.0756 26.7673 71.1832 26.7845C71.1875 26.7845 71.1875 26.7845 71.1918 26.7845C71.2779 26.7931 71.3554 26.806 71.4372 26.8233C71.5232 26.8362 71.605 26.8534 71.6911 26.8706C71.7642 26.8835 71.8288 26.9007 71.8977 26.9222C71.9149 26.9265 71.9364 26.9308 71.9536 26.9351C72.1129 26.9782 72.2721 27.0255 72.427 27.0815C72.5088 27.1073 72.5863 27.1375 72.6638 27.1719C72.7456 27.2063 72.8187 27.2407 72.9005 27.2752C72.9779 27.3096 73.0511 27.344 73.1286 27.3871C73.2792 27.4646 73.4299 27.5463 73.5762 27.6367C73.6322 27.6711 73.6924 27.7099 73.7441 27.7486C73.899 27.8562 74.0539 27.9681 74.2003 28.0843C74.5231 28.3383 74.8114 28.6309 75.0697 28.9494L77.7941 27.6798C77.5703 27.3526 77.3206 27.0427 77.0581 26.7501C76.9849 26.6683 76.9118 26.5908 76.8343 26.5134C76.7654 26.4402 76.6923 26.3713 76.6191 26.2982C76.4857 26.169 76.348 26.0442 76.2059 25.9323C76.0725 25.8161 75.9305 25.6999 75.7885 25.5923C75.7067 25.532 75.6249 25.4761 75.5431 25.4158C75.5001 25.3814 75.4613 25.3556 75.4226 25.3298C75.3537 25.2824 75.2849 25.2351 75.2117 25.192C75.0137 25.0672 74.8115 24.9467 74.6049 24.8434C74.5102 24.7918 74.4155 24.7401 74.3165 24.6971C74.2003 24.6411 74.0841 24.5852 73.9679 24.5378C73.7527 24.4431 73.5289 24.3614 73.3051 24.2839C73.2448 24.2624 73.1845 24.2408 73.12 24.2236C73.0167 24.1892 72.9177 24.1591 72.8144 24.1333C72.7283 24.1031 72.6423 24.0816 72.5562 24.0644C72.3453 24.0084 72.1258 23.9611 71.9063 23.931C71.8245 23.9137 71.7427 23.9051 71.6609 23.8922C71.5835 23.8793 71.5146 23.8707 71.4372 23.8621C71.3253 23.8449 71.2047 23.8363 71.0928 23.832C70.9809 23.8234 70.869 23.8148 70.7571 23.8105C70.6495 23.8062 70.5419 23.8062 70.4343 23.8062C70.1847 23.8062 69.9351 23.8148 69.6897 23.8363C69.6854 23.832 69.6854 23.832 69.6811 23.8363C69.5606 23.8492 69.4358 23.8621 69.3196 23.875C69.2077 23.8879 69.1044 23.9051 68.9925 23.9223C68.9193 23.9353 68.8461 23.9482 68.773 23.9611C68.5965 23.9955 68.4201 24.0343 68.2436 24.0773C68.136 24.1031 68.0327 24.1332 67.9251 24.1634C67.8821 24.172 67.839 24.1892 67.796 24.2021C67.7142 24.2279 67.6367 24.2538 67.5507 24.2839C67.5205 24.2925 67.4904 24.3011 67.4602 24.3183C67.344 24.3571 67.2279 24.4001 67.116 24.4431C66.9782 24.4991 66.8362 24.555 66.7028 24.6196C66.6856 24.6282 66.6726 24.6325 66.6554 24.6411C66.3498 24.7832 66.0572 24.9424 65.7774 25.1146C65.6957 25.1619 65.6225 25.2136 65.5407 25.2609C65.5149 25.2781 65.4891 25.2953 65.4633 25.3126C65.3815 25.3642 65.3083 25.4202 65.2308 25.4718C65.1706 25.5148 65.1189 25.5579 65.0587 25.5923C64.964 25.6655 64.8779 25.7343 64.7875 25.8075C63.6556 26.7286 62.7862 27.895 62.2267 29.1905C62.1879 29.2765 62.1535 29.354 62.1191 29.4444C62.0674 29.5606 62.0244 29.6897 61.9813 29.8102C61.9469 29.9092 61.9125 30.0125 61.8823 30.1158C61.8608 30.1761 61.8436 30.2363 61.8264 30.3009C61.8006 30.3913 61.7748 30.4773 61.7532 30.5677C61.7274 30.671 61.7016 30.77 61.6801 30.8733C61.637 31.0756 61.5983 31.2779 61.5681 31.4845C61.5509 31.5921 61.538 31.6911 61.5294 31.7987C61.5079 31.9838 61.495 32.1731 61.4864 32.3668C61.4821 32.4873 61.4778 32.6121 61.4778 32.7326V32.7455C61.4778 32.8661 61.4821 32.9909 61.4864 33.1114C61.4907 33.1975 61.495 33.2835 61.4993 33.3696C61.5165 33.5676 61.538 33.7699 61.5681 33.9679C61.5768 34.0497 61.5897 34.1228 61.6026 34.2046H76.2275C76.1371 34.5575 76.0208 34.9019 75.8702 35.2161C75.8401 35.2892 75.8057 35.3538 75.7669 35.4226C75.7239 35.5216 75.6722 35.612 75.6206 35.7067C75.5646 35.81 75.5044 35.909 75.4398 36.008C75.4011 36.0682 75.3623 36.1199 75.3279 36.1758C75.2806 36.2447 75.2332 36.3092 75.1859 36.3738C75.1644 36.4039 75.1428 36.4341 75.117 36.4642C75.0482 36.5546 74.975 36.6407 74.8932 36.7267L74.8889 36.731C74.8157 36.8214 74.734 36.9075 74.6479 36.985C74.6049 37.0366 74.5575 37.0797 74.5188 37.1098C74.4585 37.1701 74.4026 37.2217 74.3423 37.269C74.3079 37.3035 74.2735 37.3336 74.2347 37.3638C74.153 37.4326 74.0755 37.4929 73.9894 37.5531C73.9679 37.5703 73.9894 37.5531 73.9679 37.5703C73.8689 37.6435 73.7699 37.7081 73.6666 37.7769C73.5547 37.8458 73.4428 37.9104 73.3266 37.9792C73.2103 38.0481 73.0812 38.1083 72.9564 38.1643C72.8617 38.2116 72.7671 38.2547 72.6681 38.2891C72.6595 38.2934 72.6465 38.2977 72.6379 38.302C72.5346 38.3451 72.4357 38.3795 72.3324 38.4139C72.2291 38.4527 72.1258 38.4871 72.0139 38.5129C71.9063 38.5473 71.803 38.5732 71.6954 38.5947C71.6567 38.6033 71.6179 38.6119 71.5835 38.6162C71.4845 38.6377 71.3941 38.6549 71.2951 38.6722H71.2693C71.1445 38.6937 71.0111 38.7066 70.8862 38.7152C70.869 38.7195 70.8518 38.7195 70.8346 38.7195C70.7012 38.7324 70.5591 38.7367 70.4214 38.7367C70.4214 38.7367 70.4171 38.7367 70.4128 38.7367C70.2708 38.7367 70.1201 38.7324 69.9781 38.7195C69.8662 38.7109 69.7629 38.698 69.651 38.6851C69.6424 38.6851 69.6381 38.6851 69.6295 38.6808C69.5563 38.6765 69.4874 38.6636 69.4143 38.6506C69.4014 38.6463 69.3885 38.642 69.3755 38.642C69.2163 38.6162 69.0528 38.5818 68.8978 38.5344C68.773 38.5043 68.6525 38.4699 68.532 38.4268C68.532 38.4268 68.532 38.4268 68.5277 38.4268C68.4115 38.3838 68.2909 38.3364 68.1747 38.2934C68.0714 38.2547 67.9768 38.2116 67.8778 38.1686C67.7831 38.1213 67.6884 38.0696 67.598 38.0266C67.598 38.0266 67.5937 38.0309 67.5937 38.0266C67.4043 37.9276 67.2279 37.8157 67.0471 37.6951C67.0127 37.6693 66.9739 37.6478 66.9395 37.622C66.9051 37.5919 66.8706 37.5703 66.8362 37.5445C66.8362 37.5445 66.8319 37.5488 66.8319 37.5445C66.763 37.4886 66.6985 37.4369 66.6339 37.3853H66.6296C66.3068 37.127 66.0228 36.8343 65.7688 36.5202L63.0401 37.7942C63.2639 38.1213 63.5049 38.4268 63.7718 38.7195C63.8751 38.8314 63.974 38.939 64.0773 39.0466C64.0989 39.0638 64.1204 39.0853 64.1376 39.1069C64.2409 39.2059 64.3399 39.3005 64.4475 39.3952C64.5551 39.4899 64.6627 39.5846 64.7746 39.675C64.9855 39.8472 65.205 40.0107 65.4331 40.1614C65.4977 40.2087 65.5579 40.2474 65.6268 40.2862C65.7645 40.3765 65.9066 40.454 66.0443 40.5358C66.1433 40.5961 66.2422 40.6477 66.3498 40.695C66.5005 40.7768 66.6555 40.8457 66.8061 40.9146C66.9352 40.9748 67.0686 41.0265 67.202 41.0781C67.3182 41.1211 67.4301 41.1642 67.5421 41.1943C67.6281 41.2287 67.7142 41.2546 67.8003 41.2804C67.8519 41.2976 67.9036 41.3148 67.9509 41.3277C68.0413 41.3535 68.1317 41.3794 68.2264 41.4009C68.3297 41.4267 68.4287 41.4525 68.532 41.4741C68.6525 41.4999 68.7773 41.5257 68.8978 41.5429C69.0226 41.5687 69.1474 41.586 69.2723 41.6032C69.2895 41.6075 69.3067 41.6075 69.3239 41.6118C69.4272 41.6204 69.5262 41.6333 69.6338 41.6419C69.6596 41.6462 69.6811 41.6462 69.7027 41.6462C69.9394 41.6677 70.1761 41.6763 70.4171 41.6763C70.5333 41.6763 70.6538 41.6721 70.7657 41.6721C70.8819 41.6678 70.9982 41.6591 71.1144 41.6505C71.1445 41.6462 71.1789 41.6462 71.209 41.6419C71.2908 41.6333 71.3726 41.6247 71.4586 41.6161C71.5662 41.6032 71.6695 41.5903 71.7771 41.5687C71.988 41.5386 72.1989 41.4956 72.4098 41.4482C72.5303 41.4224 72.6509 41.3923 72.7714 41.3578C72.78 41.3535 72.7886 41.3535 72.7972 41.3535C73.1458 41.2502 73.4944 41.1297 73.8388 40.9877C73.955 40.9404 74.0669 40.8887 74.1788 40.8414C74.1831 40.8371 74.1917 40.8328 74.2003 40.8328C74.3466 40.7596 74.4929 40.6907 74.635 40.6133H74.6393V40.609C74.7813 40.5315 74.9276 40.454 75.0654 40.3679C75.1601 40.312 75.2461 40.256 75.3408 40.1958C75.5216 40.0796 75.6937 39.9504 75.8659 39.8256C75.8702 39.8213 75.8745 39.817 75.8788 39.817C76.0467 39.6879 76.2102 39.5502 76.3652 39.4125C76.5201 39.2747 76.675 39.1241 76.8214 38.9778C76.9677 38.8271 77.1141 38.6678 77.2475 38.5043C77.3078 38.4354 77.3594 38.3666 77.4153 38.2977C77.5918 38.0739 77.7553 37.8458 77.9103 37.6091C77.9748 37.5144 78.0308 37.4197 78.0868 37.325C78.401 36.7956 78.6592 36.2404 78.8615 35.6594C78.8916 35.5604 78.926 35.4657 78.9562 35.3667C78.9734 35.3193 78.9863 35.272 78.9992 35.229C79.0293 35.1257 79.0551 35.031 79.0809 34.9277C79.1068 34.8244 79.1326 34.7254 79.1541 34.6221C79.1757 34.5188 79.1972 34.4198 79.2144 34.3165C79.2359 34.2089 79.2531 34.1099 79.266 34.0066C79.2962 33.8 79.3177 33.5935 79.3349 33.3869C79.3392 33.2922 79.3435 33.2061 79.3478 33.1157C79.3521 32.9995 79.3564 32.879 79.3564 32.7585V32.7154C79.3564 32.5992 79.3521 32.483 79.3478 32.3711C79.3478 32.2893 79.3435 32.2118 79.3392 32.1301Z" fill="#F5F5F5"/>
<path d="M98.0959 32.3368C98.0873 32.1431 98.0744 31.9494 98.0529 31.7686C98.0486 31.7299 98.0443 31.6868 98.04 31.6481C98.04 31.6438 98.0357 31.6352 98.0357 31.6266C98.0357 31.618 98.0357 31.6094 98.0313 31.6008C98.027 31.5534 98.0228 31.5061 98.0142 31.4544C97.9926 31.3167 97.9711 31.1747 97.9453 31.037C97.9367 31.0111 97.9324 30.981 97.9281 30.9509C97.9194 30.9164 97.9152 30.882 97.9066 30.8433C97.9066 30.839 97.9023 30.8347 97.9023 30.8304C97.8937 30.783 97.8807 30.7314 97.8678 30.6797C97.8549 30.6324 97.842 30.5807 97.8334 30.5291C97.8248 30.4817 97.8119 30.4344 97.799 30.3914C97.7861 30.3483 97.7731 30.301 97.7602 30.2579C97.7473 30.2063 97.7301 30.1589 97.7172 30.1073C97.7129 30.103 97.7129 30.0987 97.7129 30.0944C97.6999 30.047 97.6827 29.9997 97.6698 29.9523C97.6698 29.948 97.6655 29.9481 97.6655 29.9437C97.6483 29.8921 97.6311 29.8404 97.6139 29.7931C97.6053 29.7673 97.5966 29.7458 97.588 29.7199C97.5794 29.6812 97.5622 29.6424 97.5493 29.6037C97.5407 29.5736 97.5278 29.5392 97.5149 29.509C97.4676 29.3756 97.4116 29.2422 97.3513 29.1131C97.3255 29.0528 97.2954 28.9925 97.2652 28.928C97.2265 28.8462 97.1878 28.7687 97.1491 28.6913C97.1448 28.6784 97.1361 28.6697 97.1318 28.6568C97.0845 28.5535 97.0328 28.4503 96.9726 28.3556C96.9683 28.3513 96.9683 28.3469 96.964 28.3426C96.8994 28.2307 96.8349 28.1145 96.7617 27.9983C96.7531 27.9897 96.7488 27.9768 96.7402 27.9682C96.7359 27.9596 96.7273 27.9467 96.723 27.9381C96.6842 27.8735 96.6455 27.8089 96.5981 27.7444C96.5938 27.7401 96.5895 27.7315 96.5809 27.7229C96.4346 27.5034 96.2753 27.2882 96.1118 27.0859C96.0688 27.0342 96.0257 26.9783 95.9783 26.9266C95.9783 26.9223 95.9783 26.9223 95.974 26.9223C95.9267 26.8664 95.8794 26.8147 95.832 26.7588C95.8277 26.7545 95.8234 26.7502 95.8191 26.7459C95.7675 26.6899 95.7158 26.634 95.6599 26.5737C95.6254 26.535 95.5867 26.4919 95.5436 26.4532C95.5221 26.436 95.5007 26.4145 95.4834 26.3929C95.4318 26.3413 95.3801 26.2896 95.3242 26.2423C95.2941 26.2122 95.2596 26.1777 95.2252 26.1476C95.2036 26.1304 95.1865 26.1089 95.1649 26.0917C95.1219 26.0529 95.0745 26.0099 95.0272 25.9711C94.9583 25.9109 94.8895 25.8549 94.8163 25.7947C94.7733 25.7603 94.7302 25.7258 94.6829 25.6871C94.6699 25.6742 94.6527 25.6656 94.6398 25.6526C94.6097 25.6268 94.5796 25.6053 94.5495 25.5795C94.5365 25.5709 94.5237 25.5623 94.515 25.5537C94.4677 25.5235 94.4246 25.4891 94.3773 25.4547C94.3558 25.4374 94.3342 25.4202 94.3084 25.4073C94.2869 25.3901 94.2654 25.3729 94.2439 25.36L94.2396 25.3643C94.2095 25.3385 94.1793 25.3212 94.1449 25.2997L94.0674 25.2481C93.9899 25.2007 93.9125 25.1491 93.8307 25.1017C93.5509 24.9296 93.2583 24.7746 92.9527 24.6283C92.9355 24.6197 92.9226 24.6154 92.9054 24.6068C92.7719 24.5465 92.6342 24.4862 92.4922 24.4303C92.3802 24.383 92.2598 24.3399 92.1436 24.3055C92.1177 24.2883 92.0833 24.2797 92.0531 24.2711C91.9714 24.2409 91.8896 24.2151 91.8078 24.1936C91.7605 24.1807 91.7217 24.1635 91.6787 24.1549C91.5754 24.1247 91.4678 24.0946 91.3645 24.0731C91.1881 24.0257 91.0116 23.987 90.8351 23.9569C90.7749 23.9483 90.7103 23.9353 90.65 23.9267C90.6414 23.9224 90.6285 23.9224 90.6156 23.9224C90.5726 23.9138 90.5296 23.9052 90.4822 23.9009C90.4607 23.8966 90.4392 23.8966 90.4134 23.8923C90.3703 23.888 90.3316 23.8794 90.2885 23.8751C90.2713 23.8708 90.2498 23.8708 90.2283 23.8708C90.125 23.8579 90.0217 23.845 89.9227 23.8407C89.8883 23.8363 89.8495 23.8321 89.8151 23.8321C89.729 23.8278 89.643 23.8234 89.5569 23.8191C89.4321 23.8148 89.3116 23.8105 89.1867 23.8105H89.1738C89.0533 23.8105 88.9285 23.8148 88.808 23.8191C88.6875 23.8234 88.5712 23.832 88.455 23.8407C88.4378 23.8407 88.4163 23.8407 88.3991 23.845C88.3603 23.845 88.3216 23.8493 88.2829 23.8536C88.2656 23.8536 88.257 23.8536 88.2398 23.8579C88.2183 23.8579 88.1968 23.8622 88.1753 23.8665C88.1365 23.8708 88.1021 23.8751 88.0634 23.8794C88.0204 23.8837 87.9773 23.888 87.9343 23.8966C87.8998 23.9009 87.8654 23.9095 87.831 23.9138C87.7922 23.9181 87.7492 23.9224 87.7105 23.9354C87.6029 23.9526 87.4909 23.9698 87.3833 23.9956C87.3618 23.9999 87.3446 23.9999 87.3231 24.0042C87.2887 24.0085 87.2585 24.0171 87.2241 24.0257C87.1595 24.0387 87.0907 24.0559 87.0218 24.0731C87.0132 24.0774 87.0003 24.0774 86.996 24.0774C86.9659 24.0817 86.9401 24.0903 86.9099 24.0989C86.9013 24.1032 86.8927 24.1032 86.8884 24.1032C86.8453 24.1161 86.798 24.129 86.755 24.1419C86.6904 24.1592 86.6301 24.1764 86.5699 24.1979C86.4709 24.2237 86.3633 24.2582 86.2686 24.2926C86.2084 24.3141 86.1438 24.3356 86.0835 24.3614C86.0534 24.3701 86.0233 24.383 85.9932 24.3959C85.8813 24.4346 85.7694 24.482 85.6575 24.5293C85.5412 24.581 85.4208 24.6326 85.3046 24.6929C85.2056 24.7359 85.1109 24.7875 85.0162 24.8392C84.986 24.8564 84.9559 24.8693 84.9258 24.8865C84.7709 24.964 84.6202 25.0544 84.4739 25.1491C84.4653 25.1534 84.4524 25.162 84.4438 25.1663C84.4308 25.1706 84.4222 25.1792 84.4093 25.1835C84.3576 25.2136 84.3103 25.2481 84.2587 25.2825C84.2415 25.2954 84.2199 25.3083 84.1984 25.3212C84.1554 25.3471 84.121 25.3686 84.0779 25.403C83.8283 25.5795 83.5829 25.7732 83.3462 25.9754C83.2257 26.0701 83.1138 26.1734 82.9976 26.2853C82.9288 26.3585 82.8513 26.4317 82.7824 26.5005C82.705 26.578 82.6275 26.6555 82.5586 26.7373C82.4553 26.8492 82.3563 26.9654 82.2616 27.0859C82.1928 27.172 82.1196 27.2624 82.0464 27.357C81.969 27.456 81.8958 27.5593 81.8227 27.6626H81.8269C81.8054 27.6927 81.7839 27.7229 81.7624 27.7573C81.7452 27.7788 81.728 27.8046 81.7151 27.8305C81.6634 27.9079 81.6117 27.9854 81.5687 28.0672C81.3965 28.3469 81.2373 28.6396 81.0953 28.9452C81.0867 28.9624 81.0823 28.9753 81.078 28.9926C81.0135 29.126 80.9533 29.268 80.8973 29.4057C80.85 29.5177 80.8112 29.6382 80.7725 29.7501C80.7553 29.7802 80.7467 29.8103 80.7381 29.8404C80.7122 29.9222 80.6864 30.004 80.6606 30.0858C80.6476 30.1331 80.6304 30.1718 80.6218 30.2149C80.5917 30.3182 80.5659 30.4258 80.54 30.5334C80.4927 30.7056 80.4583 30.8863 80.4239 31.0628C80.411 31.1187 80.4023 31.1833 80.3937 31.2435C80.3851 31.3038 80.3765 31.364 80.3679 31.4286C80.3636 31.4458 80.3636 31.463 80.3593 31.4846C80.355 31.5233 80.3464 31.5663 80.3421 31.6051C80.3378 31.6438 80.3378 31.6825 80.3335 31.7256C80.3335 31.7471 80.3248 31.7729 80.3248 31.7945C80.3162 31.8074 80.3163 31.8246 80.3163 31.8375C80.3077 31.9279 80.299 32.014 80.2947 32.1043C80.2904 32.1861 80.2861 32.2593 80.2818 32.3411C80.2818 32.3884 80.2818 32.4358 80.2775 32.4874V32.5132C80.2732 32.5692 80.2732 32.6251 80.2732 32.6854V32.7241C80.2732 32.7844 80.2775 32.8446 80.2775 32.9049V47.6762H83.2214V39.3437C83.2946 39.4082 83.3677 39.4728 83.4452 39.5374C83.5012 39.589 83.5614 39.6363 83.626 39.6837C83.669 39.7181 83.7121 39.7526 83.7551 39.787C83.8369 39.8472 83.923 39.9118 84.0091 39.9764C84.0564 40.0108 84.1037 40.0452 84.1511 40.0797L84.1554 40.0754C84.1941 40.1055 84.2372 40.1313 84.2802 40.1571C84.3706 40.2131 84.461 40.2733 84.5557 40.3293C84.6934 40.4111 84.8397 40.4928 84.9818 40.5703V40.5746H84.9861C85.1281 40.6478 85.2744 40.7209 85.4251 40.7941C85.4337 40.7941 85.438 40.7984 85.4423 40.8027C85.5585 40.8501 85.6661 40.9017 85.7866 40.9534C86.1309 41.0954 86.4795 41.2202 86.8281 41.3192C86.8367 41.3192 86.8411 41.3192 86.8497 41.3235C86.9702 41.3536 87.0907 41.3838 87.2155 41.4096C87.392 41.4526 87.5641 41.487 87.7363 41.5129V41.5172C87.8095 41.5258 87.8826 41.5387 87.9558 41.5473C87.9644 41.5473 87.973 41.5516 87.9773 41.5516C88.0289 41.5559 88.0849 41.5645 88.1365 41.5731C88.1882 41.5774 88.2398 41.5861 88.2915 41.5904C88.3044 41.599 88.3216 41.599 88.3388 41.599C88.4249 41.6033 88.5153 41.6119 88.6057 41.6162C88.6272 41.6162 88.653 41.6162 88.6788 41.6205C88.7348 41.6205 88.7864 41.6248 88.8424 41.6291H88.8596C88.9672 41.6334 89.0748 41.6377 89.1867 41.6377H89.2298C89.3503 41.6377 89.4708 41.6334 89.5913 41.6291C89.6774 41.6248 89.7677 41.6205 89.8624 41.6162C90.0088 41.6076 90.1551 41.5947 90.3014 41.5731C90.3617 41.5688 90.4219 41.5602 90.4865 41.5516C90.5855 41.5387 90.6888 41.5215 90.7921 41.5C90.8954 41.4828 90.9944 41.4655 91.0977 41.444C91.1967 41.4225 91.2999 41.3967 91.4032 41.3709C91.5022 41.3493 91.6012 41.3235 91.7002 41.2934C91.7476 41.2805 91.7949 41.2676 91.8379 41.2503C91.9326 41.2245 92.0316 41.1901 92.1306 41.16C92.2296 41.1255 92.3329 41.0911 92.4276 41.0524C92.4921 41.0265 92.561 41.0007 92.6256 40.9749C92.6902 40.9491 92.759 40.9189 92.8236 40.8888C92.8322 40.8845 92.8408 40.8802 92.8494 40.8759C92.914 40.8458 92.9828 40.8156 93.0517 40.7855C93.1292 40.7511 93.2066 40.7124 93.2798 40.6736C93.3315 40.6478 93.3831 40.622 93.4347 40.5961C93.4606 40.5832 93.4821 40.5703 93.5079 40.5574C93.6026 40.5058 93.6973 40.4541 93.792 40.3982C93.8866 40.3465 93.9813 40.2862 94.076 40.2217C94.2267 40.127 94.373 40.0237 94.515 39.9118C94.5452 39.8903 94.5796 39.8645 94.6097 39.8429C94.6571 39.8042 94.7087 39.7655 94.7603 39.7267C94.7905 39.7052 94.8163 39.6837 94.8464 39.6579C94.8851 39.6277 94.9282 39.5976 94.9669 39.5632C94.9841 39.5503 94.997 39.5373 95.01 39.5244C95.0616 39.4771 95.1176 39.4298 95.1692 39.3824C95.2079 39.348 95.251 39.3092 95.2897 39.2705C95.3112 39.249 95.3371 39.2275 95.3586 39.2016C95.3672 39.1973 95.3715 39.193 95.3801 39.1844C95.3974 39.1715 95.4146 39.1543 95.4318 39.1414C95.4447 39.1285 95.4576 39.1156 95.4705 39.0983C95.4877 39.0854 95.5006 39.0725 95.5135 39.0553C95.5178 39.051 95.5222 39.0467 95.5308 39.0424L95.6427 38.9262C95.7115 38.8573 95.7761 38.7884 95.8363 38.7153C95.8449 38.7067 95.8536 38.6981 95.8622 38.6895C95.9138 38.6335 95.9612 38.5733 96.0128 38.5173C96.0214 38.5087 96.0257 38.5001 96.0343 38.4915C96.0946 38.4183 96.1548 38.3451 96.2151 38.2677C96.2323 38.2461 96.2495 38.2246 96.2667 38.2031C96.2667 38.1988 96.271 38.1988 96.271 38.1988L96.2754 38.1945C96.3055 38.1558 96.3356 38.117 96.3614 38.074C96.4001 38.018 96.4475 37.9621 96.4862 37.9061C96.4992 37.8889 96.512 37.8717 96.525 37.8545C96.5379 37.8373 96.5508 37.82 96.5637 37.8028L96.5594 37.7985C96.5896 37.7598 96.6154 37.7168 96.6455 37.6737C96.7057 37.579 96.7617 37.4886 96.8177 37.3983C96.8994 37.2605 96.9812 37.1142 97.0586 36.9722H97.063V36.9679C97.1361 36.8258 97.2093 36.6838 97.2825 36.5332C97.2825 36.5246 97.2868 36.5159 97.2954 36.5116C97.347 36.3997 97.3944 36.2878 97.4417 36.1716C97.5837 35.823 97.7085 35.4787 97.8075 35.1301C97.8075 35.1215 97.8075 35.1128 97.8118 35.1042C97.8463 34.9837 97.8764 34.8632 97.898 34.7384C97.941 34.5619 97.9754 34.3855 98.0056 34.2133H98.0099C98.0185 34.1444 98.0314 34.0756 98.04 34.0067C98.0443 33.9981 98.0443 33.9852 98.0443 33.9766C98.0529 33.9163 98.0615 33.8518 98.0701 33.7915C98.0744 33.77 98.0744 33.7442 98.0787 33.7226C98.083 33.6624 98.0916 33.6021 98.0959 33.5419C98.1002 33.5118 98.1002 33.4816 98.1045 33.4515C98.1088 33.43 98.1088 33.4042 98.1132 33.3826C98.1132 33.3482 98.1175 33.3138 98.1175 33.2793C98.1175 33.2191 98.126 33.1631 98.126 33.1029C98.126 33.0469 98.1303 32.9866 98.1303 32.9307C98.1303 32.8747 98.1303 32.8145 98.1303 32.7586V32.7499C98.1045 32.5821 98.1002 32.4616 98.0959 32.3368ZM95.1649 32.7198C95.1649 32.8575 95.1606 32.9996 95.1477 33.133C95.1477 33.1502 95.1477 33.1674 95.1434 33.1846C95.1348 33.3138 95.1219 33.4429 95.1004 33.572V33.5978C95.0832 33.6925 95.0659 33.7872 95.0487 33.8819C95.0444 33.9206 95.0358 33.9594 95.0272 33.9938C95.0143 34.0584 95.0014 34.1186 94.9842 34.1832C94.9756 34.2262 94.9627 34.2693 94.9497 34.3123C94.9282 34.4199 94.8938 34.5275 94.855 34.6265C94.8206 34.7298 94.7905 34.8288 94.7474 34.9321C94.7431 34.9407 94.7389 34.9536 94.7346 34.9622C94.6958 35.0569 94.6528 35.1559 94.6054 35.2506C94.5495 35.3754 94.4892 35.5045 94.4203 35.6207C94.3515 35.7326 94.2869 35.8488 94.218 35.9607C94.1535 36.0597 94.0846 36.163 94.0115 36.262C93.9942 36.2792 94.0114 36.262 93.9942 36.2792C93.9426 36.3567 93.8866 36.4256 93.8221 36.4987L93.8135 36.4944C93.5596 36.8129 93.2755 37.1013 92.9527 37.3595H92.9484C92.8881 37.4112 92.8192 37.4628 92.7504 37.5231C92.7504 37.5274 92.7461 37.5231 92.7461 37.5231C92.7116 37.5446 92.6772 37.5661 92.6471 37.5962C92.6127 37.6221 92.5739 37.6436 92.5395 37.6694C92.4147 37.7555 92.2856 37.8373 92.1522 37.9147C92.1005 37.9449 92.0488 37.975 91.9929 38.0008H91.9886C91.9499 38.0223 91.9111 38.0396 91.8681 38.0611C91.8595 38.0654 91.8595 38.0654 91.8509 38.0697C91.8121 38.0912 91.7734 38.1127 91.7346 38.1299C91.7131 38.1385 91.6873 38.1515 91.6615 38.1601C91.6529 38.1601 91.6486 38.1644 91.6443 38.1687C91.5969 38.1902 91.5453 38.2117 91.4937 38.2332C91.3774 38.2849 91.2612 38.3322 91.1364 38.3753C91.0934 38.3882 91.046 38.4054 90.9987 38.4183C90.9772 38.4226 90.9599 38.4312 90.9384 38.4355C90.861 38.4571 90.7792 38.4829 90.6974 38.5001C90.6888 38.5044 90.6845 38.5044 90.6759 38.5044C90.6716 38.5087 90.663 38.5087 90.6543 38.5087V38.513C90.5123 38.5517 90.3617 38.5819 90.2196 38.6034C90.2067 38.6034 90.1938 38.6077 90.1809 38.612C90.1078 38.6249 90.0389 38.6378 89.9657 38.6421C89.9571 38.6464 89.9528 38.6464 89.9442 38.6464C89.8366 38.6593 89.729 38.6722 89.6171 38.6766C89.4708 38.6895 89.3245 38.6938 89.1824 38.6938C89.1781 38.6938 89.1738 38.6938 89.1738 38.6938C89.0361 38.6938 88.8941 38.6895 88.7606 38.6766C88.7434 38.6766 88.7262 38.6765 88.709 38.6722C88.5799 38.6636 88.4508 38.6507 88.3259 38.6292H88.3001C88.2011 38.612 88.1107 38.5948 88.0117 38.5733C87.973 38.569 87.9386 38.5604 87.8999 38.5517C87.8396 38.5431 87.7707 38.5259 87.7061 38.5087C87.6674 38.5001 87.6244 38.4872 87.5813 38.4743C87.4737 38.4484 87.3661 38.4183 87.2671 38.3796C87.1681 38.3451 87.0649 38.3107 86.9616 38.2677C86.953 38.2634 86.9401 38.2591 86.9315 38.2548C86.8368 38.216 86.7378 38.173 86.6474 38.1299C86.5226 38.074 86.3935 38.0137 86.2773 37.9449C86.1653 37.8803 86.0448 37.8115 85.9372 37.7426C85.8382 37.6737 85.735 37.6091 85.6403 37.536C85.6188 37.5231 85.6403 37.536 85.6187 37.5231C85.5456 37.4714 85.4681 37.4112 85.3992 37.3509C85.3562 37.3165 85.3131 37.282 85.2701 37.2433C85.2314 37.2175 85.1969 37.1874 85.1625 37.1529C85.1367 37.1271 85.1066 37.1013 85.0764 37.0712C85.0463 37.0453 85.0119 37.0152 84.9818 36.9808C84.9731 36.9722 84.9645 36.9636 84.9602 36.955C84.943 36.942 84.9344 36.9291 84.9172 36.9162C84.8569 36.8603 84.801 36.7957 84.7493 36.7354C84.7321 36.7182 84.7106 36.6967 84.6977 36.6752C84.6417 36.6106 84.5901 36.5461 84.5384 36.4815C84.4825 36.4083 84.4179 36.3352 84.362 36.2577C84.3146 36.1888 84.263 36.12 84.2156 36.0511C84.2113 36.0425 84.2027 36.0382 84.1984 36.0296C84.1597 35.9779 84.1252 35.9177 84.0908 35.8617C84.0822 35.8488 84.0736 35.8359 84.0693 35.823C84.022 35.7412 83.9746 35.6594 83.9273 35.5734C83.9186 35.5561 83.9101 35.5389 83.9015 35.5217C83.8842 35.483 83.8627 35.4443 83.8455 35.4012C83.8068 35.3367 83.7723 35.2678 83.7465 35.1946C83.7293 35.1559 83.7078 35.1171 83.6906 35.0741L83.6389 34.9536H83.6346C83.6045 34.8761 83.5701 34.7943 83.5442 34.7169C83.5442 34.7126 83.5442 34.7083 83.5399 34.704C83.5098 34.6222 83.484 34.5361 83.4581 34.45C83.4323 34.3639 83.4108 34.2779 83.385 34.1918C83.385 34.1918 83.385 34.1918 83.385 34.1875C83.3677 34.1229 83.3505 34.054 83.3376 33.9852C83.3204 33.8991 83.3032 33.8173 83.2903 33.7313C83.2731 33.6495 83.2602 33.572 83.2559 33.4859C83.2559 33.4816 83.2559 33.4816 83.2559 33.4816C83.2386 33.374 83.2301 33.2707 83.2214 33.1631V33.1588C83.2171 33.1115 83.2171 33.0641 83.2128 33.0168V32.496H83.2085C83.2085 32.4272 83.2171 32.3583 83.2214 32.2894C83.2171 32.2851 83.2171 32.2808 83.2214 32.2765C83.2301 32.1388 83.2473 31.9967 83.2645 31.8633C83.2602 31.859 83.2602 31.8504 83.2645 31.8461C83.286 31.7084 83.3118 31.5706 83.3419 31.4286C83.3548 31.3683 83.3677 31.3081 83.385 31.2478C83.4022 31.1618 83.428 31.0757 83.4581 30.9853C83.4926 30.8648 83.5313 30.74 83.583 30.6152C83.6303 30.486 83.682 30.3569 83.7422 30.2321C83.7465 30.2192 83.7508 30.202 83.7594 30.1891C83.7853 30.1288 83.8154 30.0685 83.8498 30.0083C83.8842 29.9394 83.9144 29.8792 83.9488 29.8146C84.009 29.7027 84.0693 29.5994 84.1381 29.4918C84.263 29.2981 84.4007 29.1088 84.5471 28.9323C84.5729 28.8979 84.5987 28.8677 84.6245 28.8376C84.6675 28.786 84.7106 28.7343 84.7579 28.6827C84.7924 28.6439 84.8311 28.6009 84.8742 28.5622C84.8828 28.5535 84.8913 28.5449 84.9043 28.532C84.9215 28.5062 84.9473 28.4847 84.9731 28.4632C84.9774 28.4546 84.9861 28.4459 84.9947 28.4416C85.0334 28.3986 85.0764 28.3599 85.1152 28.3254C85.1195 28.3211 85.1195 28.3168 85.1238 28.3168C85.141 28.2953 85.1668 28.2738 85.1883 28.2609C85.1883 28.2609 85.1883 28.2566 85.1926 28.2566C85.2056 28.2436 85.2185 28.2308 85.2357 28.2178C85.2916 28.1662 85.3519 28.1188 85.4122 28.0715C85.4466 28.0414 85.4767 28.0155 85.5111 27.994C85.5929 27.9295 85.679 27.8649 85.7651 27.809C85.8468 27.7487 85.9329 27.6927 86.019 27.6368C86.0233 27.6325 86.0319 27.6282 86.0362 27.6239C86.1825 27.5335 86.3332 27.4517 86.4838 27.3742C86.557 27.3312 86.6345 27.2968 86.712 27.2623C86.7937 27.2322 86.8669 27.1935 86.9486 27.159C87.0261 27.1289 87.1079 27.0988 87.1897 27.073C87.3446 27.0127 87.4996 26.9697 87.6588 26.9266C87.676 26.9223 87.6975 26.918 87.7105 26.9137C87.7793 26.8922 87.8482 26.875 87.9213 26.8664C88.0031 26.8492 88.0892 26.832 88.1753 26.819C88.2527 26.8018 88.3345 26.7889 88.4206 26.7803C88.4249 26.7803 88.4249 26.7803 88.4292 26.7803C88.5325 26.7631 88.6401 26.7545 88.7477 26.7502H88.752C88.8941 26.7372 89.0361 26.733 89.1781 26.733H89.1996C89.3373 26.733 89.4794 26.7372 89.6214 26.7502C89.6257 26.7459 89.63 26.7459 89.6343 26.7502C89.772 26.7545 89.9141 26.7717 90.0475 26.7932C90.0518 26.7889 90.0604 26.7889 90.0647 26.7932C90.2024 26.8147 90.3445 26.8406 90.4865 26.8707C90.5424 26.8793 90.6027 26.8922 90.663 26.9094C90.749 26.9309 90.8394 26.9567 90.9298 26.9869C91.0503 27.017 91.1751 27.0601 91.2999 27.1074C91.4291 27.1504 91.5582 27.2107 91.683 27.2666C91.6959 27.2709 91.7131 27.2752 91.726 27.2839C91.7863 27.314 91.8466 27.3441 91.9068 27.3786C91.9757 27.4087 92.0359 27.4431 92.1005 27.4775C92.2124 27.5335 92.3157 27.598 92.4233 27.6669C92.617 27.7917 92.8063 27.9295 92.9828 28.0801L92.9785 28.0887C93.297 28.3426 93.5854 28.6267 93.8436 28.9495V28.9538C93.8996 29.0184 93.9512 29.0829 94.0072 29.1518C94.0115 29.1518 94.0115 29.1518 94.0115 29.1561L94.0072 29.1604C94.033 29.1905 94.0545 29.225 94.0803 29.2594C94.1062 29.2938 94.1277 29.3283 94.1535 29.3627C94.1836 29.4057 94.2138 29.4488 94.2396 29.4961C94.2826 29.5564 94.3213 29.6209 94.3601 29.6898C94.3988 29.7587 94.4418 29.8361 94.4806 29.9093C94.4806 29.9136 94.4806 29.9136 94.4806 29.9136C94.5279 29.9997 94.5753 30.0987 94.6226 30.1891C94.6226 30.1934 94.627 30.1934 94.627 30.1977C94.6356 30.2192 94.6484 30.2407 94.6571 30.2622C94.6614 30.2708 94.6657 30.2837 94.67 30.2967C94.6872 30.3397 94.7087 30.3784 94.7259 30.4215C94.7345 30.4387 94.7388 30.4602 94.7474 30.4774C94.7646 30.5248 94.7819 30.5721 94.7991 30.6195C94.8292 30.6926 94.855 30.7615 94.8809 30.8347C94.8809 30.839 94.8809 30.839 94.8809 30.839C94.9239 30.9595 94.954 31.08 94.9842 31.2048C95.0315 31.3598 95.0659 31.5233 95.0875 31.6826C95.0875 31.6955 95.0918 31.7041 95.0961 31.717C95.109 31.7902 95.1219 31.859 95.1262 31.9322C95.1305 31.9408 95.1305 31.9451 95.1305 31.9494C95.1434 32.0613 95.1563 32.1646 95.1649 32.2765C95.1779 32.4228 95.1821 32.5692 95.1821 32.7112C95.1649 32.7155 95.1649 32.7198 95.1649 32.7198Z" fill="#F5F5F5"/>
<path d="M139.405 34.1746H144.781L152.244 41.6421L156.415 41.6464L147.471 32.707L156.41 23.7676H152.244L145.392 30.6238L144.781 31.235H139.405V23.7676H136.461V41.6421H139.405V34.1746Z" fill="#F5F5F5"/>
<path d="M116.844 32.5861C116.844 32.5043 116.844 32.4225 116.84 32.3408C116.831 32.1471 116.818 31.9534 116.797 31.7727C116.792 31.7339 116.784 31.6909 116.779 31.6521C116.779 31.6478 116.779 31.6392 116.779 31.6306C116.775 31.622 116.775 31.6134 116.775 31.6048C116.771 31.5575 116.767 31.5101 116.758 31.4584C116.736 31.3207 116.715 31.1787 116.689 31.041C116.685 31.0151 116.676 30.985 116.672 30.9549C116.668 30.9205 116.659 30.886 116.65 30.8473C116.65 30.843 116.646 30.8387 116.646 30.8344C116.637 30.787 116.625 30.7354 116.612 30.6837C116.599 30.6364 116.586 30.5848 116.577 30.5331C116.564 30.4858 116.556 30.4384 116.543 30.3954C116.53 30.3523 116.517 30.305 116.504 30.2619C116.491 30.2103 116.474 30.1629 116.461 30.1113C116.461 30.107 116.461 30.1027 116.457 30.0984C116.444 30.0511 116.427 30.0037 116.414 29.9564C116.414 29.9521 116.414 29.952 116.414 29.9477C116.396 29.8961 116.379 29.8445 116.362 29.7971C116.353 29.7713 116.345 29.7498 116.336 29.7239C116.323 29.6852 116.31 29.6465 116.297 29.6077C116.289 29.5776 116.276 29.5432 116.263 29.5131C116.216 29.3796 116.16 29.2462 116.099 29.1171C116.074 29.0568 116.043 28.9966 116.013 28.932C115.975 28.8502 115.936 28.7728 115.897 28.6953C115.893 28.6824 115.889 28.6738 115.88 28.6608C115.833 28.5576 115.781 28.4543 115.721 28.3596C115.721 28.3553 115.716 28.351 115.712 28.3467C115.648 28.2348 115.583 28.1186 115.51 28.0023C115.505 27.9937 115.501 27.9808 115.493 27.9722C115.488 27.9636 115.48 27.9507 115.475 27.9421C115.437 27.8775 115.398 27.813 115.351 27.7484C115.346 27.7441 115.342 27.7355 115.338 27.7269C115.299 27.6709 115.264 27.615 115.221 27.5633C115.221 27.559 115.217 27.559 115.217 27.559C115.209 27.5504 115.2 27.5375 115.191 27.5246C115.122 27.4213 115.049 27.3223 114.967 27.2233C114.937 27.176 114.903 27.1329 114.864 27.0899C114.821 27.0383 114.778 26.9823 114.731 26.9307C114.731 26.9264 114.731 26.9263 114.731 26.9263C114.683 26.8704 114.636 26.8187 114.589 26.7628C114.584 26.7585 114.58 26.7542 114.576 26.7499C114.524 26.6939 114.473 26.638 114.417 26.5777C114.386 26.5433 114.352 26.5089 114.318 26.4701C114.309 26.4658 114.305 26.4615 114.3 26.4572C114.292 26.4486 114.279 26.44 114.27 26.4314C114.257 26.4228 114.253 26.4099 114.244 26.4012C114.193 26.3496 114.141 26.298 114.085 26.2506C114.055 26.2205 114.021 26.186 113.986 26.1559C113.965 26.1387 113.947 26.1172 113.926 26.1C113.883 26.0612 113.836 26.0182 113.788 25.9795C113.719 25.9192 113.65 25.8632 113.577 25.803C113.534 25.7686 113.491 25.7341 113.444 25.6954C113.427 25.6825 113.414 25.6739 113.401 25.661C113.371 25.6351 113.341 25.6136 113.31 25.5878C113.298 25.5792 113.285 25.5706 113.276 25.562C113.233 25.5275 113.186 25.4931 113.138 25.463C113.117 25.4458 113.095 25.4286 113.069 25.4156C113.061 25.407 113.048 25.3984 113.035 25.3941C113.026 25.3855 113.014 25.3769 113.005 25.3683V25.3726C112.975 25.3468 112.945 25.3296 112.91 25.308L112.833 25.2564C112.755 25.2091 112.678 25.1574 112.596 25.11C112.316 24.9379 112.024 24.783 111.718 24.6366C111.701 24.628 111.688 24.6237 111.671 24.6151C111.537 24.5548 111.399 24.4946 111.257 24.4386C111.146 24.3913 111.025 24.3483 110.909 24.3138C110.879 24.2966 110.849 24.288 110.818 24.2794C110.737 24.2493 110.655 24.2234 110.573 24.2019C110.526 24.189 110.487 24.1718 110.444 24.1632C110.341 24.133 110.233 24.1029 110.13 24.0814C109.953 24.034 109.777 23.9953 109.6 23.9652C109.54 23.9566 109.476 23.9437 109.415 23.9351C109.402 23.9308 109.394 23.9308 109.381 23.9308C109.338 23.9221 109.295 23.9135 109.248 23.9092C109.226 23.9049 109.2 23.9049 109.179 23.9006C109.14 23.8963 109.097 23.8877 109.058 23.8834C109.041 23.8791 109.019 23.8791 108.998 23.8791C108.895 23.8662 108.791 23.8533 108.692 23.849C108.658 23.8447 108.619 23.8404 108.585 23.8404C108.499 23.8361 108.413 23.8318 108.326 23.8275C108.206 23.8232 108.081 23.8188 107.961 23.8188H107.948C107.827 23.8188 107.702 23.8232 107.582 23.8275C107.539 23.8318 107.496 23.8318 107.457 23.8361C107.38 23.8361 107.306 23.8447 107.229 23.849C107.212 23.849 107.19 23.849 107.173 23.8533C107.134 23.8533 107.096 23.8576 107.057 23.8619C107.044 23.8619 107.031 23.8619 107.014 23.8662C106.992 23.8662 106.971 23.8705 106.949 23.8748C106.91 23.8791 106.876 23.8834 106.837 23.8877C106.794 23.892 106.751 23.8963 106.708 23.9049C106.674 23.9092 106.639 23.9178 106.605 23.9221C106.566 23.9264 106.523 23.9308 106.484 23.9437C106.377 23.9609 106.265 23.9781 106.157 24.0039C106.136 24.0082 106.119 24.0082 106.097 24.0125C106.063 24.0168 106.032 24.0254 105.998 24.034C105.933 24.047 105.865 24.0642 105.796 24.0814C105.787 24.0857 105.779 24.0857 105.766 24.0857C105.74 24.09 105.71 24.0986 105.684 24.1072C105.675 24.1115 105.671 24.1115 105.662 24.1115C105.619 24.1244 105.572 24.1374 105.529 24.1503C105.464 24.1675 105.404 24.1847 105.344 24.2062C105.245 24.232 105.137 24.2665 105.043 24.3009C104.982 24.3224 104.918 24.3439 104.857 24.3698C104.827 24.3784 104.797 24.3913 104.767 24.4042C104.655 24.4429 104.543 24.4903 104.431 24.5376C104.315 24.5893 104.195 24.6409 104.078 24.7012C103.984 24.7442 103.885 24.7959 103.794 24.8475C103.764 24.8647 103.734 24.8776 103.704 24.8948C103.549 24.9723 103.398 25.0627 103.252 25.1574C103.239 25.1617 103.231 25.1703 103.222 25.1746C103.157 25.2134 103.097 25.2521 103.037 25.2908C103.02 25.3037 102.998 25.3166 102.977 25.3296C102.934 25.3554 102.899 25.3769 102.856 25.4113C102.607 25.5878 102.361 25.7815 102.124 25.9838C102.004 26.0785 101.892 26.1817 101.776 26.2936C101.716 26.3539 101.651 26.4185 101.591 26.4787C101.578 26.4873 101.569 26.4959 101.561 26.5088C101.488 26.5863 101.406 26.6638 101.337 26.7456C101.234 26.8575 101.135 26.9737 101.04 27.0942C100.971 27.1803 100.898 27.2707 100.825 27.3653C100.747 27.4643 100.674 27.5676 100.601 27.6709H100.605C100.584 27.7011 100.562 27.7312 100.541 27.7656C100.523 27.7871 100.506 27.813 100.493 27.8388C100.442 27.9163 100.39 27.9937 100.347 28.0755C100.175 28.3553 100.016 28.6479 99.8735 28.9535C99.8692 28.9707 99.8649 28.9837 99.8563 29.0009C99.7917 29.1343 99.7315 29.2763 99.6755 29.414C99.6282 29.526 99.5894 29.6465 99.5507 29.7584C99.5335 29.7885 99.5249 29.8186 99.5163 29.8488C99.4905 29.9305 99.4646 30.0123 99.4388 30.0941C99.4259 30.1414 99.4087 30.1802 99.4001 30.2232C99.3699 30.3265 99.3441 30.4341 99.3183 30.5417C99.2709 30.7139 99.2365 30.8946 99.2021 31.0711C99.1934 31.1271 99.1806 31.1916 99.172 31.2519H99.1676C99.159 31.3121 99.1505 31.3724 99.1418 31.4369C99.1418 31.4541 99.1375 31.4714 99.1375 31.4929C99.1289 31.5316 99.1246 31.5746 99.1203 31.6134C99.116 31.6521 99.116 31.6909 99.1074 31.7339C99.1074 31.7554 99.1031 31.7812 99.0988 31.8028C99.0902 31.8157 99.0902 31.8329 99.0902 31.8458C99.0859 31.8889 99.0816 31.9319 99.0773 31.9749V31.9792C99.073 32.0223 99.0687 32.0653 99.0687 32.1127C99.0644 32.1944 99.06 32.2676 99.0557 32.3494C99.0514 32.3881 99.0514 32.4269 99.0514 32.4656C99.0514 32.5431 99.0471 32.6162 99.0471 32.698V32.7367C99.0471 32.8185 99.0514 32.896 99.0514 32.9778V41.6546H101.995V34.1915H113.973V41.6546H116.917V32.8142C116.921 32.7884 116.921 32.7583 116.921 32.7281V32.7195C116.848 32.6679 116.848 32.6248 116.844 32.5861ZM102.099 31.2389C102.116 31.1486 102.142 31.0625 102.172 30.9764C102.206 30.8559 102.245 30.7311 102.292 30.6063C102.34 30.4771 102.396 30.348 102.456 30.2232C102.46 30.2103 102.465 30.1931 102.473 30.1802C102.499 30.1199 102.529 30.0596 102.563 29.9994C102.598 29.9305 102.628 29.8703 102.662 29.8057C102.723 29.6938 102.783 29.5905 102.852 29.4829C102.977 29.2892 103.114 29.0998 103.261 28.9234C103.287 28.889 103.312 28.8588 103.338 28.8287C103.381 28.7771 103.424 28.7254 103.472 28.6738C103.506 28.635 103.545 28.592 103.588 28.5532C103.596 28.5446 103.605 28.536 103.618 28.5231C103.635 28.4973 103.661 28.4758 103.687 28.4543C103.691 28.4457 103.7 28.4371 103.708 28.4327C103.747 28.3897 103.79 28.351 103.829 28.3165C103.833 28.3122 103.837 28.3079 103.837 28.3079C103.855 28.2864 103.88 28.2649 103.902 28.252C103.902 28.252 103.902 28.2477 103.906 28.2477C103.919 28.2348 103.932 28.2218 103.949 28.2089C104.005 28.1573 104.066 28.1099 104.126 28.0626C104.16 28.0325 104.19 28.0066 104.225 27.9851C104.307 27.9206 104.393 27.856 104.479 27.8C104.56 27.7398 104.647 27.6839 104.733 27.6279C104.741 27.6236 104.746 27.6193 104.75 27.615C104.896 27.5246 105.047 27.4428 105.197 27.3653C105.271 27.3223 105.348 27.2879 105.426 27.2535C105.507 27.2233 105.581 27.1846 105.662 27.1501C105.74 27.12 105.822 27.0899 105.903 27.0641C106.058 27.0038 106.213 26.9608 106.372 26.9177C106.39 26.9134 106.411 26.9091 106.424 26.9048C106.493 26.8833 106.558 26.8661 106.635 26.8575C106.717 26.8403 106.803 26.823 106.889 26.8101C106.966 26.7929 107.048 26.78 107.134 26.7714C107.139 26.7714 107.139 26.7714 107.143 26.7714C107.246 26.7542 107.354 26.7456 107.461 26.7413H107.466C107.608 26.7284 107.75 26.724 107.892 26.724H107.913C108.051 26.724 108.193 26.7284 108.335 26.7413C108.339 26.737 108.344 26.737 108.348 26.7413C108.486 26.7456 108.628 26.7628 108.761 26.7843C108.765 26.78 108.774 26.78 108.778 26.7843C108.916 26.8058 109.058 26.8317 109.2 26.8618C109.256 26.8704 109.316 26.8833 109.377 26.9005C109.463 26.922 109.553 26.9479 109.643 26.978C109.764 27.0081 109.889 27.0511 110.014 27.0985C110.143 27.1415 110.272 27.2018 110.397 27.2577C110.41 27.262 110.427 27.2664 110.44 27.275C110.5 27.3051 110.56 27.3352 110.62 27.3696C110.689 27.3998 110.75 27.4342 110.814 27.4687C110.926 27.5246 111.029 27.5891 111.137 27.658C111.331 27.7828 111.52 27.9206 111.696 28.0712L111.692 28.0798C112.011 28.3338 112.299 28.6178 112.557 28.9406V28.9449C112.613 29.0095 112.665 29.074 112.721 29.1429C112.721 29.1429 112.721 29.1429 112.721 29.1472V29.1515C112.747 29.1816 112.768 29.2161 112.794 29.2505C112.82 29.2849 112.841 29.3194 112.867 29.3538C112.897 29.3968 112.927 29.4399 112.953 29.4872C112.996 29.5475 113.035 29.612 113.074 29.6809C113.113 29.7498 113.156 29.8272 113.194 29.9004C113.194 29.9047 113.194 29.9047 113.194 29.9047C113.242 29.9908 113.289 30.0898 113.336 30.1802C113.341 30.1845 113.341 30.1845 113.341 30.1888C113.354 30.2103 113.362 30.2318 113.371 30.2533C113.375 30.2619 113.379 30.2749 113.384 30.2878C113.401 30.3308 113.422 30.3695 113.44 30.4126C113.448 30.4298 113.457 30.4513 113.461 30.4685C113.483 30.5159 113.5 30.5632 113.517 30.6106C113.547 30.6837 113.573 30.7526 113.599 30.8258C113.599 30.8301 113.599 30.8301 113.599 30.8301C113.642 30.9506 113.672 31.0711 113.702 31.1959C113.706 31.2088 113.711 31.2217 113.711 31.2347H102.099V31.2389Z" fill="#F5F5F5"/>
<path d="M135.588 32.5861C135.588 32.5043 135.583 32.4225 135.583 32.3408C135.575 32.1471 135.562 31.9534 135.54 31.7727C135.536 31.7339 135.532 31.6909 135.527 31.6521C135.527 31.6478 135.523 31.6392 135.523 31.6306C135.523 31.622 135.523 31.6134 135.519 31.6048C135.514 31.5575 135.51 31.5101 135.502 31.4584C135.48 31.3207 135.459 31.1787 135.433 31.041C135.424 31.0151 135.42 30.985 135.415 30.9549C135.407 30.9205 135.403 30.886 135.394 30.8473C135.394 30.843 135.394 30.8387 135.39 30.8344C135.381 30.787 135.368 30.7354 135.355 30.6837C135.342 30.6364 135.329 30.5848 135.321 30.5331C135.312 30.4858 135.299 30.4384 135.286 30.3954C135.273 30.3523 135.261 30.305 135.248 30.2619C135.235 30.2103 135.217 30.1629 135.205 30.1113C135.2 30.107 135.2 30.1027 135.2 30.0984C135.183 30.0511 135.17 30.0037 135.157 29.9564C135.157 29.9521 135.153 29.952 135.153 29.9477C135.136 29.8961 135.118 29.8445 135.101 29.7971C135.093 29.7713 135.084 29.7498 135.075 29.7239C135.067 29.6852 135.05 29.6465 135.037 29.6077C135.024 29.5776 135.015 29.5432 135.002 29.5131C134.955 29.3796 134.899 29.2462 134.839 29.1171C134.813 29.0568 134.783 28.9966 134.753 28.932C134.714 28.8502 134.675 28.7728 134.636 28.6953C134.632 28.6824 134.624 28.6738 134.619 28.6608C134.572 28.5576 134.52 28.4543 134.46 28.3596C134.456 28.3553 134.456 28.351 134.451 28.3467C134.387 28.2348 134.322 28.1186 134.249 28.0023C134.24 27.9937 134.236 27.9808 134.232 27.9722C134.223 27.9636 134.219 27.9507 134.215 27.9421C134.176 27.8775 134.137 27.813 134.09 27.7484C134.086 27.7441 134.081 27.7355 134.077 27.7269C134.038 27.6709 134.004 27.615 133.961 27.5633C133.961 27.559 133.956 27.559 133.956 27.559C133.948 27.5504 133.939 27.5375 133.931 27.5246C133.862 27.4213 133.789 27.3223 133.707 27.2233C133.677 27.176 133.642 27.1329 133.604 27.0899C133.56 27.0383 133.517 26.9823 133.47 26.9307C133.47 26.9264 133.47 26.9263 133.466 26.9263C133.418 26.8704 133.371 26.8187 133.324 26.7628C133.319 26.7585 133.315 26.7542 133.311 26.7499C133.259 26.6939 133.208 26.638 133.152 26.5777C133.121 26.5433 133.087 26.5089 133.053 26.4701C133.044 26.4658 133.04 26.4615 133.035 26.4572C133.027 26.4486 133.014 26.44 133.005 26.4314C132.997 26.4228 132.988 26.4099 132.979 26.4012C132.928 26.3496 132.876 26.298 132.82 26.2506C132.79 26.2205 132.756 26.186 132.721 26.1559C132.7 26.1387 132.682 26.1172 132.661 26.1C132.618 26.0612 132.571 26.0182 132.523 25.9795C132.454 25.9192 132.385 25.8632 132.312 25.803C132.269 25.7686 132.226 25.7341 132.179 25.6954C132.166 25.6825 132.149 25.6739 132.136 25.661C132.106 25.6351 132.076 25.6136 132.045 25.5878C132.033 25.5792 132.02 25.5706 132.011 25.562C131.968 25.5275 131.921 25.4931 131.873 25.463C131.852 25.4458 131.83 25.4286 131.804 25.4156C131.792 25.407 131.783 25.3984 131.77 25.3941C131.761 25.3855 131.749 25.3769 131.74 25.3683L131.736 25.3726C131.705 25.3468 131.675 25.3296 131.641 25.308L131.563 25.2564C131.486 25.2091 131.408 25.1574 131.327 25.11C131.047 24.9379 130.754 24.783 130.449 24.6366C130.432 24.628 130.419 24.6237 130.401 24.6151C130.268 24.5548 130.13 24.4946 129.988 24.4386C129.876 24.3913 129.756 24.3483 129.64 24.3138C129.609 24.2966 129.579 24.288 129.549 24.2794C129.467 24.2493 129.386 24.2234 129.304 24.2019C129.257 24.189 129.218 24.1718 129.175 24.1632C129.071 24.133 128.964 24.1029 128.861 24.0814C128.684 24.034 128.508 23.9953 128.331 23.9652C128.271 23.9566 128.206 23.9437 128.146 23.9351C128.137 23.9308 128.125 23.9308 128.112 23.9308C128.069 23.9221 128.026 23.9135 127.978 23.9092C127.957 23.9049 127.935 23.9049 127.909 23.9006C127.866 23.8963 127.828 23.8877 127.785 23.8834C127.767 23.8791 127.746 23.8791 127.724 23.8791C127.621 23.8662 127.518 23.8533 127.419 23.849C127.384 23.8447 127.346 23.8404 127.311 23.8404C127.225 23.8361 127.139 23.8318 127.053 23.8275C126.932 23.8232 126.808 23.8188 126.687 23.8188H126.674C126.554 23.8188 126.429 23.8232 126.308 23.8275C126.265 23.8318 126.222 23.8318 126.183 23.8361C126.106 23.8361 126.033 23.8447 125.955 23.849C125.938 23.849 125.917 23.849 125.899 23.8533C125.861 23.8533 125.822 23.8576 125.783 23.8619C125.77 23.8619 125.757 23.8619 125.74 23.8662C125.719 23.8662 125.697 23.8705 125.676 23.8748C125.637 23.8791 125.602 23.8834 125.564 23.8877C125.521 23.892 125.478 23.8963 125.435 23.9049C125.4 23.9092 125.366 23.9178 125.331 23.9221C125.293 23.9264 125.25 23.9308 125.211 23.9437C125.103 23.9609 124.991 23.9781 124.884 24.0039C124.862 24.0082 124.845 24.0082 124.823 24.0125C124.789 24.0168 124.759 24.0254 124.724 24.034C124.66 24.047 124.591 24.0642 124.522 24.0814C124.518 24.0857 124.505 24.0857 124.496 24.0857C124.47 24.09 124.44 24.0986 124.415 24.1072C124.41 24.1115 124.402 24.1115 124.393 24.1115C124.35 24.1244 124.303 24.1374 124.26 24.1503C124.195 24.1675 124.135 24.1847 124.075 24.2062C123.976 24.232 123.868 24.2665 123.773 24.3009C123.713 24.3224 123.648 24.3439 123.588 24.3698C123.558 24.3784 123.528 24.3913 123.498 24.4042C123.386 24.4429 123.274 24.4903 123.162 24.5376C123.046 24.5893 122.925 24.6409 122.809 24.7012C122.715 24.7442 122.615 24.7959 122.525 24.8475C122.495 24.8647 122.465 24.8776 122.435 24.8948C122.28 24.9723 122.129 25.0627 121.983 25.1574C121.974 25.1617 121.961 25.1703 121.948 25.1746C121.888 25.2134 121.828 25.2521 121.768 25.2908C121.75 25.3037 121.729 25.3166 121.707 25.3296C121.664 25.3554 121.63 25.3769 121.587 25.4113C121.337 25.5878 121.092 25.7815 120.855 25.9838C120.735 26.0785 120.623 26.1817 120.507 26.2936C120.446 26.3539 120.382 26.4185 120.321 26.4787C120.313 26.4873 120.3 26.4959 120.291 26.5088C120.218 26.5863 120.136 26.6638 120.068 26.7456C119.964 26.8575 119.865 26.9737 119.771 27.0942C119.702 27.1803 119.629 27.2707 119.555 27.3653C119.478 27.4643 119.405 27.5676 119.332 27.6709H119.336C119.314 27.7011 119.293 27.7312 119.271 27.7656C119.254 27.7871 119.237 27.813 119.224 27.8388C119.172 27.9163 119.121 27.9937 119.078 28.0755C118.905 28.3553 118.746 28.6479 118.604 28.9535C118.596 28.9707 118.591 28.9837 118.583 29.0009C118.518 29.1343 118.458 29.2763 118.402 29.414C118.355 29.526 118.316 29.6465 118.277 29.7584C118.26 29.7885 118.251 29.8186 118.243 29.8488C118.217 29.9305 118.191 30.0123 118.165 30.0941C118.152 30.1414 118.135 30.1802 118.126 30.2232C118.096 30.3265 118.07 30.4341 118.045 30.5417C117.997 30.7139 117.963 30.8946 117.928 31.0711C117.92 31.1271 117.907 31.1916 117.898 31.2519C117.885 31.3121 117.881 31.3724 117.873 31.4369C117.868 31.4541 117.868 31.4714 117.864 31.4929C117.86 31.5316 117.851 31.5746 117.847 31.6134C117.842 31.6521 117.842 31.6909 117.838 31.7339C117.834 31.7554 117.834 31.7812 117.829 31.8028C117.821 31.8157 117.821 31.8329 117.821 31.8458C117.817 31.8889 117.812 31.9319 117.808 31.9749V31.9792C117.804 32.0223 117.804 32.0653 117.799 32.1127C117.795 32.1944 117.791 32.2676 117.786 32.3494C117.782 32.3881 117.782 32.4269 117.782 32.4656C117.782 32.5431 117.778 32.6162 117.778 32.698V32.7367C117.778 32.8185 117.778 32.896 117.782 32.9778V41.6546H120.726V34.1915H132.704V41.6546H135.648V32.8142C135.652 32.7884 135.652 32.7583 135.652 32.7281V32.7195C135.592 32.6679 135.592 32.6248 135.588 32.5861ZM120.842 31.2389C120.864 31.1486 120.885 31.0625 120.915 30.9764C120.95 30.8559 120.989 30.7311 121.036 30.6063C121.083 30.4771 121.139 30.348 121.2 30.2232C121.204 30.2103 121.208 30.1931 121.217 30.1802C121.243 30.1199 121.273 30.0596 121.307 29.9994C121.342 29.9305 121.372 29.8703 121.406 29.8057C121.466 29.6938 121.527 29.5905 121.595 29.4829C121.72 29.2892 121.858 29.0998 122.004 28.9234C122.03 28.889 122.056 28.8588 122.082 28.8287C122.125 28.7771 122.168 28.7254 122.215 28.6738C122.25 28.635 122.288 28.592 122.331 28.5532C122.34 28.5446 122.349 28.536 122.362 28.5231C122.379 28.4973 122.405 28.4758 122.43 28.4543C122.439 28.4457 122.443 28.4371 122.452 28.4327C122.491 28.3897 122.534 28.351 122.572 28.3165C122.577 28.3122 122.577 28.3079 122.581 28.3079C122.598 28.2864 122.624 28.2649 122.646 28.252C122.646 28.252 122.646 28.2477 122.65 28.2477C122.667 28.2348 122.676 28.2218 122.693 28.2089C122.749 28.1573 122.809 28.1099 122.869 28.0626C122.904 28.0325 122.934 28.0066 122.968 27.9851C123.05 27.9206 123.136 27.856 123.222 27.8C123.304 27.7398 123.39 27.6839 123.476 27.6279C123.481 27.6236 123.489 27.6193 123.494 27.615C123.64 27.5246 123.79 27.4428 123.941 27.3653C124.014 27.3223 124.092 27.2879 124.169 27.2535C124.251 27.2233 124.324 27.1846 124.406 27.1501C124.483 27.12 124.565 27.0899 124.647 27.0641C124.802 27.0038 124.957 26.9608 125.116 26.9177C125.133 26.9134 125.155 26.9091 125.168 26.9048C125.237 26.8833 125.301 26.8661 125.379 26.8575C125.46 26.8403 125.546 26.823 125.633 26.8101C125.71 26.7929 125.792 26.78 125.878 26.7714C125.882 26.7714 125.882 26.7714 125.886 26.7714C125.99 26.7542 126.097 26.7456 126.205 26.7413H126.209C126.351 26.7284 126.493 26.724 126.635 26.724H126.657C126.795 26.724 126.937 26.7284 127.079 26.7413C127.083 26.737 127.087 26.737 127.092 26.7413C127.229 26.7456 127.371 26.7628 127.505 26.7843C127.509 26.78 127.518 26.78 127.522 26.7843C127.66 26.8058 127.802 26.8317 127.944 26.8618C128 26.8704 128.06 26.8833 128.12 26.9005C128.206 26.922 128.297 26.9479 128.387 26.978C128.508 27.0081 128.632 27.0511 128.757 27.0985C128.886 27.1415 129.015 27.2018 129.14 27.2577C129.153 27.262 129.17 27.2664 129.183 27.275C129.244 27.3051 129.304 27.3352 129.364 27.3696C129.433 27.3998 129.493 27.4342 129.558 27.4687C129.67 27.5246 129.773 27.5891 129.881 27.658C130.074 27.7828 130.264 27.9206 130.44 28.0712L130.436 28.0798C130.754 28.3338 131.043 28.6178 131.301 28.9406V28.9449C131.357 29.0095 131.409 29.074 131.464 29.1429C131.469 29.1429 131.469 29.1429 131.469 29.1472L131.464 29.1515C131.49 29.1816 131.512 29.2161 131.538 29.2505C131.563 29.2849 131.585 29.3194 131.611 29.3538C131.641 29.3968 131.671 29.4399 131.697 29.4872C131.74 29.5475 131.779 29.612 131.817 29.6809C131.856 29.7498 131.899 29.8272 131.938 29.9004C131.938 29.9047 131.938 29.9047 131.938 29.9047C131.985 29.9908 132.033 30.0898 132.08 30.1802C132.08 30.1845 132.084 30.1845 132.084 30.1888C132.093 30.2103 132.106 30.2318 132.114 30.2533C132.119 30.2619 132.123 30.2749 132.127 30.2878C132.144 30.3308 132.166 30.3695 132.183 30.4126C132.192 30.4298 132.2 30.4513 132.205 30.4685C132.222 30.5159 132.239 30.5632 132.256 30.6106C132.286 30.6837 132.312 30.7526 132.338 30.8258C132.338 30.8301 132.338 30.8301 132.338 30.8301C132.381 30.9506 132.411 31.0711 132.441 31.1959C132.446 31.2088 132.45 31.2217 132.45 31.2347H120.842V31.2389Z" fill="#F5F5F5"/>
</svg>
